<svg width="68" height="10" viewBox="0 0 68 10" fill="none" xmlns="http://www.w3.org/2000/svg">
<path d="M5.016 9.144C4.368 9.144 3.764 9.04 3.204 8.832C2.652 8.616 2.172 8.312 1.764 7.92C1.356 7.528 1.036 7.068 0.804 6.54C0.58 6.012 0.468 5.432 0.468 4.8C0.468 4.168 0.58 3.588 0.804 3.06C1.036 2.532 1.356 2.072 1.764 1.68C2.18 1.288 2.664 0.987999 3.216 0.779999C3.768 0.564 4.372 0.456 5.028 0.456C5.756 0.456 6.412 0.584 6.996 0.84C7.588 1.088 8.084 1.456 8.484 1.944L7.236 3.096C6.948 2.768 6.628 2.524 6.276 2.364C5.924 2.196 5.54 2.112 5.124 2.112C4.732 2.112 4.372 2.176 4.044 2.304C3.716 2.432 3.432 2.616 3.192 2.856C2.952 3.096 2.764 3.38 2.628 3.708C2.5 4.036 2.436 4.4 2.436 4.8C2.436 5.2 2.5 5.564 2.628 5.892C2.764 6.22 2.952 6.504 3.192 6.744C3.432 6.984 3.716 7.168 4.044 7.296C4.372 7.424 4.732 7.488 5.124 7.488C5.54 7.488 5.924 7.408 6.276 7.248C6.628 7.08 6.948 6.828 7.236 6.492L8.484 7.644C8.084 8.132 7.588 8.504 6.996 8.76C6.412 9.016 5.752 9.144 5.016 9.144ZM12.5099 9.144C11.8379 9.144 11.1939 9.056 10.5779 8.88C9.96191 8.696 9.46591 8.46 9.08991 8.172L9.74991 6.708C10.1099 6.964 10.5339 7.176 11.0219 7.344C11.5179 7.504 12.0179 7.584 12.5219 7.584C12.9059 7.584 13.2139 7.548 13.4459 7.476C13.6859 7.396 13.8619 7.288 13.9739 7.152C14.0859 7.016 14.1419 6.86 14.1419 6.684C14.1419 6.46 14.0539 6.284 13.8779 6.156C13.7019 6.02 13.4699 5.912 13.1819 5.832C12.8939 5.744 12.5739 5.664 12.2219 5.592C11.8779 5.512 11.5299 5.416 11.1779 5.304C10.8339 5.192 10.5179 5.048 10.2299 4.872C9.94191 4.696 9.70591 4.464 9.52191 4.176C9.34591 3.888 9.25791 3.52 9.25791 3.072C9.25791 2.592 9.38591 2.156 9.64191 1.764C9.90591 1.364 10.2979 1.048 10.8179 0.816C11.3459 0.576 12.0059 0.456 12.7979 0.456C13.3259 0.456 13.8459 0.52 14.3579 0.648C14.8699 0.767999 15.3219 0.951999 15.7139 1.2L15.1139 2.676C14.7219 2.452 14.3299 2.288 13.9379 2.184C13.5459 2.072 13.1619 2.016 12.7859 2.016C12.4099 2.016 12.1019 2.06 11.8619 2.148C11.6219 2.236 11.4499 2.352 11.3459 2.496C11.2419 2.632 11.1899 2.792 11.1899 2.976C11.1899 3.192 11.2779 3.368 11.4539 3.504C11.6299 3.632 11.8619 3.736 12.1499 3.816C12.4379 3.896 12.7539 3.976 13.0979 4.056C13.4499 4.136 13.7979 4.228 14.1419 4.332C14.4939 4.436 14.8139 4.576 15.1019 4.752C15.3899 4.928 15.6219 5.16 15.7979 5.448C15.9819 5.736 16.0739 6.1 16.0739 6.54C16.0739 7.012 15.9419 7.444 15.6779 7.836C15.4139 8.228 15.0179 8.544 14.4899 8.784C13.9699 9.024 13.3099 9.144 12.5099 9.144ZM20.1623 9.144C19.4903 9.144 18.8463 9.056 18.2303 8.88C17.6143 8.696 17.1183 8.46 16.7423 8.172L17.4023 6.708C17.7623 6.964 18.1863 7.176 18.6743 7.344C19.1703 7.504 19.6703 7.584 20.1743 7.584C20.5583 7.584 20.8663 7.548 21.0983 7.476C21.3383 7.396 21.5143 7.288 21.6263 7.152C21.7383 7.016 21.7943 6.86 21.7943 6.684C21.7943 6.46 21.7063 6.284 21.5303 6.156C21.3543 6.02 21.1223 5.912 20.8343 5.832C20.5463 5.744 20.2263 5.664 19.8743 5.592C19.5303 5.512 19.1823 5.416 18.8303 5.304C18.4863 5.192 18.1703 5.048 17.8823 4.872C17.5943 4.696 17.3583 4.464 17.1743 4.176C16.9983 3.888 16.9103 3.52 16.9103 3.072C16.9103 2.592 17.0383 2.156 17.2943 1.764C17.5583 1.364 17.9503 1.048 18.4703 0.816C18.9983 0.576 19.6583 0.456 20.4503 0.456C20.9783 0.456 21.4983 0.52 22.0103 0.648C22.5223 0.767999 22.9743 0.951999 23.3663 1.2L22.7663 2.676C22.3743 2.452 21.9823 2.288 21.5903 2.184C21.1983 2.072 20.8143 2.016 20.4383 2.016C20.0623 2.016 19.7543 2.06 19.5143 2.148C19.2743 2.236 19.1023 2.352 18.9983 2.496C18.8943 2.632 18.8423 2.792 18.8423 2.976C18.8423 3.192 18.9303 3.368 19.1063 3.504C19.2823 3.632 19.5143 3.736 19.8023 3.816C20.0903 3.896 20.4063 3.976 20.7503 4.056C21.1023 4.136 21.4503 4.228 21.7943 4.332C22.1463 4.436 22.4663 4.576 22.7543 4.752C23.0423 4.928 23.2743 5.16 23.4503 5.448C23.6343 5.736 23.7263 6.1 23.7263 6.54C23.7263 7.012 23.5943 7.444 23.3303 7.836C23.0663 8.228 22.6703 8.544 22.1423 8.784C21.6223 9.024 20.9623 9.144 20.1623 9.144ZM25.0546 9V0.599999H26.9986V7.416H31.2106V9H25.0546ZM35.2016 9.096C34.5136 9.096 33.9016 8.952 33.3656 8.664C32.8376 8.376 32.4176 7.984 32.1056 7.488C31.8016 6.984 31.6496 6.412 31.6496 5.772C31.6496 5.124 31.8016 4.552 32.1056 4.056C32.4176 3.552 32.8376 3.16 33.3656 2.88C33.9016 2.592 34.5136 2.448 35.2016 2.448C35.8816 2.448 36.4896 2.592 37.0256 2.88C37.5616 3.16 37.9816 3.548 38.2856 4.044C38.5896 4.54 38.7416 5.116 38.7416 5.772C38.7416 6.412 38.5896 6.984 38.2856 7.488C37.9816 7.984 37.5616 8.376 37.0256 8.664C36.4896 8.952 35.8816 9.096 35.2016 9.096ZM35.2016 7.56C35.5136 7.56 35.7936 7.488 36.0416 7.344C36.2896 7.2 36.4856 6.996 36.6296 6.732C36.7736 6.46 36.8456 6.14 36.8456 5.772C36.8456 5.396 36.7736 5.076 36.6296 4.812C36.4856 4.548 36.2896 4.344 36.0416 4.2C35.7936 4.056 35.5136 3.984 35.2016 3.984C34.8896 3.984 34.6096 4.056 34.3616 4.2C34.1136 4.344 33.9136 4.548 33.7616 4.812C33.6176 5.076 33.5456 5.396 33.5456 5.772C33.5456 6.14 33.6176 6.46 33.7616 6.732C33.9136 6.996 34.1136 7.2 34.3616 7.344C34.6096 7.488 34.8896 7.56 35.2016 7.56ZM43.8474 9V7.74L43.7274 7.464V5.208C43.7274 4.808 43.6034 4.496 43.3554 4.272C43.1154 4.048 42.7434 3.936 42.2394 3.936C41.8954 3.936 41.5554 3.992 41.2194 4.104C40.8914 4.208 40.6114 4.352 40.3794 4.536L39.7074 3.228C40.0594 2.98 40.4834 2.788 40.9794 2.652C41.4754 2.516 41.9794 2.448 42.4914 2.448C43.4754 2.448 44.2394 2.68 44.7834 3.144C45.3274 3.608 45.5994 4.332 45.5994 5.316V9H43.8474ZM41.8794 9.096C41.3754 9.096 40.9434 9.012 40.5834 8.844C40.2234 8.668 39.9474 8.432 39.7554 8.136C39.5634 7.84 39.4674 7.508 39.4674 7.14C39.4674 6.756 39.5594 6.42 39.7434 6.132C39.9354 5.844 40.2354 5.62 40.6434 5.46C41.0514 5.292 41.5834 5.208 42.2394 5.208H43.9554V6.3H42.4434C42.0034 6.3 41.6994 6.372 41.5314 6.516C41.3714 6.66 41.2914 6.84 41.2914 7.056C41.2914 7.296 41.3834 7.488 41.5674 7.632C41.7594 7.768 42.0194 7.836 42.3474 7.836C42.6594 7.836 42.9394 7.764 43.1874 7.62C43.4354 7.468 43.6154 7.248 43.7274 6.96L44.0154 7.824C43.8794 8.24 43.6314 8.556 43.2714 8.772C42.9114 8.988 42.4474 9.096 41.8794 9.096ZM50.1126 9.096C49.5046 9.096 48.9566 8.96 48.4686 8.688C47.9806 8.408 47.5926 8.02 47.3046 7.524C47.0246 7.028 46.8846 6.444 46.8846 5.772C46.8846 5.092 47.0246 4.504 47.3046 4.008C47.5926 3.512 47.9806 3.128 48.4686 2.856C48.9566 2.584 49.5046 2.448 50.1126 2.448C50.6566 2.448 51.1326 2.568 51.5406 2.808C51.9486 3.048 52.2646 3.412 52.4886 3.9C52.7126 4.388 52.8246 5.012 52.8246 5.772C52.8246 6.524 52.7166 7.148 52.5006 7.644C52.2846 8.132 51.9726 8.496 51.5646 8.736C51.1646 8.976 50.6806 9.096 50.1126 9.096ZM50.4366 7.56C50.7406 7.56 51.0166 7.488 51.2646 7.344C51.5126 7.2 51.7086 6.996 51.8526 6.732C52.0046 6.46 52.0806 6.14 52.0806 5.772C52.0806 5.396 52.0046 5.076 51.8526 4.812C51.7086 4.548 51.5126 4.344 51.2646 4.2C51.0166 4.056 50.7406 3.984 50.4366 3.984C50.1246 3.984 49.8446 4.056 49.5966 4.2C49.3486 4.344 49.1486 4.548 48.9966 4.812C48.8526 5.076 48.7806 5.396 48.7806 5.772C48.7806 6.14 48.8526 6.46 48.9966 6.732C49.1486 6.996 49.3486 7.2 49.5966 7.344C49.8446 7.488 50.1246 7.56 50.4366 7.56ZM52.1286 9V7.68L52.1646 5.76L52.0446 3.852V0.0959995H53.9166V9H52.1286ZM58.8532 9.096C58.1172 9.096 57.4692 8.952 56.9092 8.664C56.3572 8.376 55.9292 7.984 55.6252 7.488C55.3212 6.984 55.1692 6.412 55.1692 5.772C55.1692 5.124 55.3172 4.552 55.6132 4.056C55.9172 3.552 56.3292 3.16 56.8492 2.88C57.3692 2.592 57.9572 2.448 58.6132 2.448C59.2452 2.448 59.8132 2.584 60.3172 2.856C60.8292 3.12 61.2332 3.504 61.5292 4.008C61.8252 4.504 61.9732 5.1 61.9732 5.796C61.9732 5.868 61.9692 5.952 61.9612 6.048C61.9532 6.136 61.9452 6.22 61.9372 6.3H56.6932V5.208H60.9532L60.2332 5.532C60.2332 5.196 60.1652 4.904 60.0292 4.656C59.8932 4.408 59.7052 4.216 59.4652 4.08C59.2252 3.936 58.9452 3.864 58.6252 3.864C58.3052 3.864 58.0212 3.936 57.7732 4.08C57.5332 4.216 57.3452 4.412 57.2092 4.668C57.0732 4.916 57.0052 5.212 57.0052 5.556V5.844C57.0052 6.196 57.0812 6.508 57.2332 6.78C57.3932 7.044 57.6132 7.248 57.8932 7.392C58.1812 7.528 58.5172 7.596 58.9012 7.596C59.2452 7.596 59.5452 7.544 59.8012 7.44C60.0652 7.336 60.3052 7.18 60.5212 6.972L61.5172 8.052C61.2212 8.388 60.8492 8.648 60.4012 8.832C59.9532 9.008 59.4372 9.096 58.8532 9.096ZM63.2195 9V2.544H65.0075V4.368L64.7555 3.84C64.9475 3.384 65.2555 3.04 65.6795 2.808C66.1035 2.568 66.6195 2.448 67.2275 2.448V4.176C67.1475 4.168 67.0755 4.164 67.0115 4.164C66.9475 4.156 66.8795 4.152 66.8075 4.152C66.2955 4.152 65.8795 4.3 65.5595 4.596C65.2475 4.884 65.0915 5.336 65.0915 5.952V9H63.2195Z" fill="white"/>
</svg>
